<mxfile host="Electron" agent="Mozilla/5.0 (Windows NT 10.0; Win64; x64) AppleWebKit/537.36 (KHTML, like Gecko) draw.io/24.7.17 Chrome/128.0.6613.36 Electron/32.0.1 Safari/537.36" version="24.7.17">
  <diagram name="Page-1" id="efa7a0a1-bf9b-a30e-e6df-94a7791c09e9">
    <mxGraphModel dx="2260" dy="2005" grid="1" gridSize="10" guides="1" tooltips="1" connect="1" arrows="1" fold="1" page="1" pageScale="1" pageWidth="826" pageHeight="1169" background="none" math="0" shadow="0">
      <root>
        <mxCell id="0" />
        <mxCell id="1" parent="0" />
        <mxCell id="wkOfRJaQxd7RHUUM3OX2-115" value="&lt;h1 style=&quot;margin-top: 0px;&quot;&gt;Dynamic Wallpapers&lt;/h1&gt;&lt;div&gt;A Nuxt PWA Application aimed to have customizable wallpapers.&lt;/div&gt;" style="text;html=1;whiteSpace=wrap;overflow=hidden;rounded=0;align=right;" parent="1" vertex="1">
          <mxGeometry x="430" y="-1160" width="390" height="80" as="geometry" />
        </mxCell>
        <mxCell id="wkOfRJaQxd7RHUUM3OX2-122" value="" style="edgeStyle=orthogonalEdgeStyle;rounded=0;orthogonalLoop=1;jettySize=auto;html=1;" parent="1" source="wkOfRJaQxd7RHUUM3OX2-118" target="wkOfRJaQxd7RHUUM3OX2-121" edge="1">
          <mxGeometry relative="1" as="geometry" />
        </mxCell>
        <mxCell id="wkOfRJaQxd7RHUUM3OX2-130" value="" style="edgeStyle=orthogonalEdgeStyle;rounded=0;orthogonalLoop=1;jettySize=auto;html=1;" parent="1" source="wkOfRJaQxd7RHUUM3OX2-118" target="wkOfRJaQxd7RHUUM3OX2-129" edge="1">
          <mxGeometry relative="1" as="geometry" />
        </mxCell>
        <mxCell id="wkOfRJaQxd7RHUUM3OX2-118" value="Components" style="shape=hexagon;perimeter=hexagonPerimeter2;whiteSpace=wrap;html=1;fixedSize=1;size=20;fillColor=#60a917;fontColor=#ffffff;strokeColor=#2D7600;" parent="1" vertex="1">
          <mxGeometry x="80" y="-920" width="120" height="40" as="geometry" />
        </mxCell>
        <mxCell id="wkOfRJaQxd7RHUUM3OX2-134" value="" style="edgeStyle=orthogonalEdgeStyle;rounded=0;orthogonalLoop=1;jettySize=auto;html=1;" parent="1" source="wkOfRJaQxd7RHUUM3OX2-119" target="wkOfRJaQxd7RHUUM3OX2-133" edge="1">
          <mxGeometry relative="1" as="geometry" />
        </mxCell>
        <mxCell id="wkOfRJaQxd7RHUUM3OX2-119" value="Routes" style="shape=hexagon;perimeter=hexagonPerimeter2;whiteSpace=wrap;html=1;fixedSize=1;size=20;fillColor=#60a917;fontColor=#ffffff;strokeColor=#2D7600;" parent="1" vertex="1">
          <mxGeometry x="370" y="-920" width="120" height="40" as="geometry" />
        </mxCell>
        <mxCell id="fhgHn6b0PtAeGwQ59fVj-2" value="" style="edgeStyle=orthogonalEdgeStyle;rounded=0;orthogonalLoop=1;jettySize=auto;html=1;" edge="1" parent="1" source="wkOfRJaQxd7RHUUM3OX2-120" target="fhgHn6b0PtAeGwQ59fVj-1">
          <mxGeometry relative="1" as="geometry" />
        </mxCell>
        <mxCell id="wkOfRJaQxd7RHUUM3OX2-120" value="Services" style="shape=hexagon;perimeter=hexagonPerimeter2;whiteSpace=wrap;html=1;fixedSize=1;size=20;fillColor=#60a917;fontColor=#ffffff;strokeColor=#2D7600;" parent="1" vertex="1">
          <mxGeometry x="640" y="-920" width="120" height="40" as="geometry" />
        </mxCell>
        <mxCell id="wkOfRJaQxd7RHUUM3OX2-126" value="" style="edgeStyle=orthogonalEdgeStyle;rounded=0;orthogonalLoop=1;jettySize=auto;html=1;" parent="1" source="wkOfRJaQxd7RHUUM3OX2-121" target="wkOfRJaQxd7RHUUM3OX2-125" edge="1">
          <mxGeometry relative="1" as="geometry" />
        </mxCell>
        <mxCell id="wkOfRJaQxd7RHUUM3OX2-139" value="We can Download and Upload&amp;nbsp;&lt;div&gt;D-Wallpaper Configurations&lt;/div&gt;" style="edgeLabel;html=1;align=center;verticalAlign=middle;resizable=0;points=[];" parent="wkOfRJaQxd7RHUUM3OX2-126" vertex="1" connectable="0">
          <mxGeometry x="-0.176" relative="1" as="geometry">
            <mxPoint as="offset" />
          </mxGeometry>
        </mxCell>
        <mxCell id="wkOfRJaQxd7RHUUM3OX2-121" value="Files" style="rhombus;whiteSpace=wrap;html=1;fillColor=#60a917;strokeColor=#2D7600;fontColor=#ffffff;" parent="1" vertex="1">
          <mxGeometry x="-120" y="-880" width="80" height="80" as="geometry" />
        </mxCell>
        <mxCell id="wkOfRJaQxd7RHUUM3OX2-128" value="" style="edgeStyle=orthogonalEdgeStyle;rounded=0;orthogonalLoop=1;jettySize=auto;html=1;" parent="1" source="wkOfRJaQxd7RHUUM3OX2-125" target="wkOfRJaQxd7RHUUM3OX2-127" edge="1">
          <mxGeometry relative="1" as="geometry" />
        </mxCell>
        <mxCell id="wkOfRJaQxd7RHUUM3OX2-125" value="Upload Settings" style="whiteSpace=wrap;html=1;fillColor=#60a917;strokeColor=#2D7600;fontColor=#ffffff;" parent="1" vertex="1">
          <mxGeometry x="-250" y="-589" width="100" height="30" as="geometry" />
        </mxCell>
        <mxCell id="wkOfRJaQxd7RHUUM3OX2-127" value="Download Settings" style="whiteSpace=wrap;html=1;fillColor=#60a917;strokeColor=#2D7600;fontColor=#ffffff;" parent="1" vertex="1">
          <mxGeometry x="-260" y="-680" width="120" height="25" as="geometry" />
        </mxCell>
        <mxCell id="wkOfRJaQxd7RHUUM3OX2-132" value="" style="edgeStyle=orthogonalEdgeStyle;rounded=0;orthogonalLoop=1;jettySize=auto;html=1;" parent="1" source="wkOfRJaQxd7RHUUM3OX2-129" target="wkOfRJaQxd7RHUUM3OX2-131" edge="1">
          <mxGeometry relative="1" as="geometry" />
        </mxCell>
        <mxCell id="wkOfRJaQxd7RHUUM3OX2-137" style="edgeStyle=orthogonalEdgeStyle;rounded=0;orthogonalLoop=1;jettySize=auto;html=1;exitX=1;exitY=0.25;exitDx=0;exitDy=0;entryX=0;entryY=0;entryDx=0;entryDy=0;" parent="1" source="wkOfRJaQxd7RHUUM3OX2-129" target="wkOfRJaQxd7RHUUM3OX2-133" edge="1">
          <mxGeometry relative="1" as="geometry" />
        </mxCell>
        <mxCell id="wkOfRJaQxd7RHUUM3OX2-138" value="Index Loads WallPage&lt;div&gt;by Default&lt;/div&gt;" style="edgeLabel;html=1;align=center;verticalAlign=middle;resizable=0;points=[];" parent="wkOfRJaQxd7RHUUM3OX2-137" vertex="1" connectable="0">
          <mxGeometry x="-0.151" y="-4" relative="1" as="geometry">
            <mxPoint as="offset" />
          </mxGeometry>
        </mxCell>
        <mxCell id="fhgHn6b0PtAeGwQ59fVj-3" style="edgeStyle=orthogonalEdgeStyle;rounded=0;orthogonalLoop=1;jettySize=auto;html=1;exitX=0.625;exitY=0;exitDx=0;exitDy=0;entryX=0;entryY=0.5;entryDx=0;entryDy=0;" edge="1" parent="1" source="wkOfRJaQxd7RHUUM3OX2-129" target="fhgHn6b0PtAeGwQ59fVj-1">
          <mxGeometry relative="1" as="geometry">
            <Array as="points">
              <mxPoint x="155" y="-870" />
              <mxPoint x="380" y="-870" />
              <mxPoint x="380" y="-850" />
            </Array>
          </mxGeometry>
        </mxCell>
        <mxCell id="fhgHn6b0PtAeGwQ59fVj-5" value="WallPage loads config on initial" style="edgeLabel;html=1;align=center;verticalAlign=middle;resizable=0;points=[];" vertex="1" connectable="0" parent="fhgHn6b0PtAeGwQ59fVj-3">
          <mxGeometry x="-0.4667" relative="1" as="geometry">
            <mxPoint as="offset" />
          </mxGeometry>
        </mxCell>
        <mxCell id="wkOfRJaQxd7RHUUM3OX2-129" value="WallPage" style="shape=hexagon;perimeter=hexagonPerimeter2;whiteSpace=wrap;html=1;fixedSize=1;size=20;fillColor=#60a917;fontColor=#ffffff;strokeColor=#2D7600;" parent="1" vertex="1">
          <mxGeometry x="80" y="-850" width="120" height="40" as="geometry" />
        </mxCell>
        <mxCell id="wkOfRJaQxd7RHUUM3OX2-131" value="Section Manager" style="whiteSpace=wrap;html=1;fillColor=#60a917;strokeColor=#2D7600;fontColor=#ffffff;" parent="1" vertex="1">
          <mxGeometry x="-50" y="-680" width="120" height="30" as="geometry" />
        </mxCell>
        <mxCell id="wkOfRJaQxd7RHUUM3OX2-133" value="Index" style="rhombus;whiteSpace=wrap;html=1;fillColor=#60a917;strokeColor=#2D7600;fontColor=#ffffff;" parent="1" vertex="1">
          <mxGeometry x="390" y="-820" width="80" height="80" as="geometry" />
        </mxCell>
        <mxCell id="fhgHn6b0PtAeGwQ59fVj-1" value="Load Configuration" style="whiteSpace=wrap;html=1;fillColor=#60a917;strokeColor=#2D7600;fontColor=#ffffff;" vertex="1" parent="1">
          <mxGeometry x="510" y="-860" width="120" height="20" as="geometry" />
        </mxCell>
      </root>
    </mxGraphModel>
  </diagram>
</mxfile>
